<?xml version="1.0" encoding="UTF-8" standalone="no"?>
<!DOCTYPE svg PUBLIC "-//W3C//DTD SVG 1.1//EN" "http://www.w3.org/Graphics/SVG/1.1/DTD/svg11.dtd">
<svg width="100%" height="100%" viewBox="0 0 909 801" version="1.1" xmlns="http://www.w3.org/2000/svg" xmlns:xlink="http://www.w3.org/1999/xlink" xml:space="preserve" xmlns:serif="http://www.serif.com/" style="fill-rule:evenodd;clip-rule:evenodd;stroke-linejoin:round;stroke-miterlimit:2;">
    <g transform="matrix(1,0,0,1,-419.766,-256.402)">
        <path id="LogoSmall" d="M1092.13,834.069L737.7,496.68L874.016,256.402L1328.27,1057.09L419.766,1057.09L729.744,510.702L1064.17,862.029C1063.76,864.201 1063.54,866.444 1063.54,868.737C1063.54,888.223 1079.36,904.043 1098.84,904.043C1118.33,904.043 1134.15,888.223 1134.15,868.737C1134.15,849.252 1118.33,833.431 1098.84,833.431C1096.55,833.431 1094.31,833.651 1092.13,834.069ZM737.7,496.68L729.744,510.702L510.758,280.652L737.7,496.68Z"/>
    </g>
</svg>
